<?xml version="1.0" standalone="no"?><!DOCTYPE svg PUBLIC "-//W3C//DTD SVG 1.1//EN" "http://www.w3.org/Graphics/SVG/1.1/DTD/svg11.dtd"><svg t="1584277813302" class="icon" viewBox="0 0 1024 1024" version="1.1" xmlns="http://www.w3.org/2000/svg" p-id="1830" xmlns:xlink="http://www.w3.org/1999/xlink" width="48" height="48"><defs><style type="text/css"></style></defs><path d="M158.72 534.186667l315.733333-317.44c105.813333-107.52 278.186667-107.52 384 0 105.813333 107.52 105.813333 279.893333 0 387.413333l-290.133333 291.84c-32.426667 32.426667-83.626667 32.426667-114.346667 0L158.72 599.04c-18.773333-18.773333-18.773333-46.08 0-64.853333z" fill="#fc79b6" p-id="1831"></path><path d="M395.946667 837.973333L165.546667 607.573333c-107.52-109.226667-107.52-285.013333 0-392.533333 107.52-109.226667 283.306667-109.226667 390.826666 0l215.04 216.746667c71.68 71.68 71.68 189.44 0 261.12l-146.773333 146.773333c-61.44 61.44-165.546667 61.44-228.693333-1.706667z" fill="#fc79b6" opacity=".5" p-id="1832"></path></svg>